<?xml version="1.0" standalone="no"?>
<!DOCTYPE svg PUBLIC "-//W3C//DTD SVG 20010904//EN"
 "http://www.w3.org/TR/2001/REC-SVG-20010904/DTD/svg10.dtd">
<svg version="1.0" xmlns="http://www.w3.org/2000/svg"
 width="741.000000pt" height="589.000000pt" viewBox="0 0 741.000000 589.000000"
 preserveAspectRatio="xMidYMid meet">

<g transform="translate(0.000000,589.000000) scale(0.100000,-0.100000)"
fill="#000000" stroke="none">
<path d="M500 5085 c-6 -7 -10 -37 -8 -66 l3 -53 60 -14 c76 -18 124 -36 205
-75 93 -45 133 -74 234 -168 122 -115 180 -188 279 -357 24 -42 105 -205 126
-257 5 -11 25 -54 45 -95 20 -41 56 -122 80 -180 45 -107 146 -340 171 -395 7
-16 24 -59 38 -95 14 -36 36 -91 51 -122 14 -31 26 -60 26 -64 0 -4 9 -27 20
-51 11 -24 30 -64 41 -90 12 -27 36 -79 54 -118 19 -38 44 -101 58 -140 13
-38 34 -92 46 -120 12 -27 29 -66 38 -85 8 -19 28 -63 44 -96 16 -34 29 -64
29 -68 0 -6 64 -150 79 -177 5 -9 28 -62 52 -119 23 -57 53 -119 66 -139 13
-20 29 -44 36 -55 57 -87 121 -140 205 -172 67 -26 201 -14 256 23 59 41 95
84 96 115 0 25 -26 96 -70 193 -10 22 -28 65 -40 95 -20 52 -33 82 -95 213
-14 30 -25 57 -25 61 0 5 -6 22 -14 39 -23 52 -138 319 -155 362 -5 11 -22 49
-39 85 -16 36 -51 117 -77 180 -26 63 -63 149 -83 190 -19 41 -45 103 -58 137
-13 35 -28 71 -33 80 -5 10 -13 29 -19 43 -6 14 -51 120 -100 235 -50 116
-106 251 -127 300 -95 234 -263 506 -415 671 -18 19 -18 23 -4 28 30 11 119 6
219 -13 107 -21 108 -21 200 -57 174 -67 302 -175 480 -408 37 -47 175 -278
175 -291 0 -2 27 -60 60 -129 33 -70 60 -129 60 -132 0 -3 11 -29 24 -57 37
-80 56 -124 56 -131 0 -4 17 -43 39 -89 21 -45 42 -93 46 -107 4 -14 23 -58
41 -98 19 -41 34 -78 34 -83 0 -5 4 -17 10 -27 16 -30 72 -155 85 -192 7 -19
22 -53 34 -75 11 -22 21 -43 21 -47 0 -5 9 -30 21 -56 11 -26 29 -65 38 -87
10 -22 29 -66 42 -98 24 -57 43 -68 60 -37 23 41 99 213 99 224 0 6 4 16 9 22
5 5 26 52 46 104 20 52 42 106 50 120 37 72 65 160 56 177 -5 10 -23 50 -41
88 -17 39 -38 82 -46 97 -8 14 -14 31 -14 38 0 7 -18 50 -40 96 -22 47 -40 88
-40 93 0 5 -16 44 -36 88 -20 43 -47 103 -61 133 -48 105 -155 315 -186 365
-70 111 -245 330 -294 368 -15 12 -30 25 -31 29 -3 7 -145 119 -218 173 -41
30 -158 91 -329 171 -27 12 -61 25 -75 28 -14 3 -49 14 -79 26 -30 12 -73 25
-95 29 -23 5 -75 16 -116 24 -234 48 -384 57 -902 57 -384 -1 -468 -3 -478
-15z"/>
<path d="M5815 5088 c-274 -29 -510 -88 -720 -180 -75 -33 -262 -131 -280
-147 -11 -10 -37 -28 -58 -41 -21 -12 -46 -30 -55 -39 -10 -9 -42 -37 -72 -61
-77 -62 -97 -83 -185 -185 -96 -112 -209 -281 -282 -422 -53 -105 -222 -487
-268 -608 -12 -33 -33 -82 -47 -110 -14 -27 -38 -81 -53 -120 -15 -38 -35 -88
-45 -110 -9 -22 -26 -62 -36 -90 -10 -27 -28 -68 -40 -90 -11 -22 -27 -58 -34
-80 -7 -22 -20 -56 -30 -75 -10 -19 -22 -46 -28 -60 -5 -14 -23 -54 -40 -90
-17 -36 -40 -92 -52 -125 -12 -33 -37 -92 -56 -132 -19 -39 -34 -77 -34 -84 0
-7 -8 -22 -18 -33 -10 -12 -33 -55 -51 -96 -18 -41 -36 -77 -40 -80 -3 -3 -15
-23 -26 -45 -83 -167 -246 -361 -356 -424 -76 -43 -182 -65 -285 -58 -64 4
-84 2 -88 -9 -3 -7 -1 -16 4 -19 6 -4 10 -12 10 -20 0 -19 64 -127 119 -200
42 -57 159 -175 173 -175 3 0 19 -11 35 -24 36 -31 127 -79 178 -96 22 -7 45
-16 50 -20 22 -17 123 -30 230 -30 90 0 126 4 169 20 71 27 75 42 21 70 -54
28 -200 158 -254 226 -56 71 -54 94 10 128 101 55 182 117 263 199 88 90 206
240 206 262 0 8 6 18 13 22 27 17 195 357 269 543 30 79 65 161 103 245 12 28
32 75 45 105 12 30 30 73 40 95 10 22 30 67 44 100 14 33 64 152 112 265 47
113 101 239 120 281 19 42 34 84 34 93 0 9 5 16 10 16 6 0 10 7 10 16 0 8 9
32 20 52 23 45 100 212 100 219 0 8 93 193 125 248 94 163 267 374 406 495
146 128 216 173 393 254 66 31 124 60 130 66 5 5 18 10 28 10 10 0 18 4 18 10
0 5 17 18 38 28 63 32 186 103 197 113 11 11 -74 10 -190 -3z"/>
<path d="M6619 5085 c-101 -13 -271 -48 -314 -65 -11 -5 -46 -20 -77 -34 -31
-14 -63 -26 -70 -26 -8 0 -18 -4 -24 -9 -5 -6 -36 -24 -69 -41 -128 -65 -272
-189 -391 -337 -41 -50 -74 -94 -74 -97 0 -3 -14 -26 -31 -51 -17 -25 -50 -83
-73 -128 -24 -45 -48 -91 -54 -102 -6 -11 -23 -47 -37 -80 -15 -33 -38 -85
-52 -115 -14 -30 -31 -68 -37 -85 -7 -16 -22 -50 -34 -75 -12 -25 -22 -52 -22
-60 0 -9 -4 -20 -9 -25 -4 -6 -17 -32 -27 -60 -10 -27 -31 -75 -46 -105 -15
-30 -28 -59 -28 -63 0 -5 -15 -41 -34 -80 -35 -74 -78 -176 -141 -332 -51
-125 -48 -119 -98 -230 -40 -90 -71 -162 -114 -265 -8 -19 -23 -53 -33 -75
-25 -55 -43 -98 -75 -180 -16 -38 -32 -74 -37 -79 -4 -6 -8 -16 -8 -23 0 -7
-20 -56 -45 -109 -25 -53 -45 -100 -45 -105 0 -5 -4 -17 -9 -27 -17 -32 -61
-133 -61 -139 0 -4 -17 -43 -39 -88 -21 -44 -41 -88 -44 -98 -11 -29 -43 -19
-80 25 -42 50 -107 136 -107 142 0 3 -18 32 -40 65 -22 33 -40 64 -40 70 0 5
-4 12 -9 15 -5 3 -31 -40 -59 -97 -49 -99 -140 -248 -182 -295 -33 -38 -26
-66 31 -119 28 -26 56 -50 62 -52 7 -2 21 -12 32 -21 11 -10 54 -36 95 -58 41
-22 79 -47 84 -54 9 -15 -50 -134 -83 -168 -9 -8 -22 -27 -29 -41 -13 -24 -91
-105 -193 -200 -20 -19 -56 -45 -80 -58 -186 -100 -288 -126 -472 -118 -106 5
-117 4 -105 -11 26 -32 124 -67 293 -107 84 -20 317 -19 403 1 115 26 255 73
297 99 22 13 56 32 75 42 19 10 39 24 43 31 4 6 20 18 35 26 30 15 126 107
205 197 54 60 149 201 218 324 49 87 219 427 219 439 0 4 11 32 25 62 14 30
25 57 25 59 0 3 8 24 19 48 10 23 26 62 36 87 18 44 46 107 100 225 15 33 35
83 45 111 10 27 30 77 45 110 14 32 30 68 35 79 4 11 19 45 33 75 14 30 39 90
56 133 17 43 44 103 60 135 15 31 31 69 35 85 3 15 11 27 16 27 6 0 10 6 10
13 0 14 45 128 67 169 8 16 27 63 43 105 27 74 71 176 147 339 18 39 33 75 33
79 0 4 16 41 35 82 19 41 35 80 35 87 0 7 7 21 15 32 8 10 15 27 15 37 0 9 4
17 9 17 5 0 12 12 15 28 19 78 137 299 254 477 157 237 431 446 615 469 70 9
87 25 87 81 0 73 -2 75 -89 74 -42 -1 -124 -7 -182 -14z"/>
</g>
</svg>
